<svg xmlns="http://www.w3.org/2000/svg" width="40" height="40" fill="none" viewBox="0 0 40 40"><g clip-path="url(#clip0_23_99)"><path fill="#fff" d="M12.0745 39.9883V9.84651H0L7.71243 0H20.1611V29.5395L12.0745 39.9883ZM8.24599 2.09991L7.76787 1.13794L1.96795 8.52478L3.98787 7.50416L8.24599 2.09991ZM17.8224 28.6401V2.5809H8.72412L5.10697 7.26562H14.3647V33.0824L17.8224 28.6401ZM18.0858 1.80272L19.0455 0.78209H8.29797L8.77609 1.80272H18.0858ZM13.6717 8.58735L12.7674 9.60798V36.7465L13.6717 34.1656V8.58735Z"/><path fill="#fff" d="M19.8389 29.5552V0.015625H32.2876L40 9.86214H27.9255V40.0039L19.8389 29.5552ZM31.2239 1.81443L31.7021 0.793805H20.9546L21.9108 1.81443H31.2239ZM25.6354 33.098V7.28124H34.8931L31.2759 2.59652H22.1776V28.6558L25.6354 33.098ZM26.3283 34.1773L27.2326 36.7582V9.61969L26.3283 8.59906V34.1773ZM36.0087 7.51978L38.0286 8.54041L32.2322 1.15357L31.754 2.11554L36.0087 7.51978Z"/></g><defs><clipPath id="clip0_23_99"><rect width="40" height="40" fill="#fff"/></clipPath></defs></svg>